<?xml version="1.0" encoding="utf-8"?>
<!-- Generator: Adobe Illustrator 22.1.0, SVG Export Plug-In . SVG Version: 6.00 Build 0)  -->
<svg version="1.1" id="Layer_1" xmlns="http://www.w3.org/2000/svg" xmlns:xlink="http://www.w3.org/1999/xlink" x="0px" y="0px"
	 viewBox="0 0 500 500" style="enable-background:new 0 0 500 500;" xml:space="preserve">
<style type="text/css">
	.st0{fill:#0F768C;}
</style>
<path class="st0" d="M393.1,281.2l-52.5-161.5l44.2-48.3l71.5,123.4l8.8,118.2L393.1,281.2z M336.5,116.8H165.1l-44.2-48.3
	l130.4-23.7l129.5,23.6L336.5,116.8z M109.6,280.7L37.5,313l8.8-118.1l71.1-122.7l44.3,48.4L109.6,280.7z M248.3,386.6v99l-131-53.8
	L38.7,317.9l71.2-31.8L248.3,386.6z M169.5,125.8h162.6L382.3,281l-131.5,95.9L119.3,281L169.5,125.8z M198.5,295.6H229v-77.8
	c2.6-3.5,6.1-6.7,10.5-9.5c4.5-2.8,9.7-4.2,15.8-4.2c6.5,0,11.7,1.6,15.6,4.7c3.8,3.1,5.7,8.7,5.7,16.9v69.9H307v-81.7
	c0-11.3-3.1-20.3-9.2-26.9c-6.1-6.6-15.6-9.9-28.4-9.9c-9.6,0-17.8,1.9-24.7,5.6c-6.9,3.8-12.1,7.9-15.8,12.3v-15.1h-30.4V295.6z
	 M463.8,317.9l-78.5,113.9l-132,54.2v-98.6l139-101L463.8,317.9z"/>
</svg>
